/* XPM */
static char * zuluCrypt_xpm[] = {
"32 24 254 2",
"  	c None",
". 	c #CF6300",
"+ 	c #B74400",
"@ 	c #BC5300",
"# 	c #B74600",
"$ 	c #AD3700",
"% 	c #AC3C00",
"& 	c #AF3600",
"* 	c #A82D00",
"= 	c #C54200",
"- 	c #C05B00",
"; 	c #994700",
"> 	c #813700",
", 	c #803000",
"' 	c #813300",
") 	c #762800",
"! 	c #752100",
"~ 	c #7D2200",
"{ 	c #882400",
"] 	c #A42C00",
"^ 	c #8A2500",
"/ 	c #C64200",
"( 	c #A73E00",
"_ 	c #6E3200",
": 	c #954300",
"< 	c #853C00",
"[ 	c #8E3800",
"} 	c #963E00",
"| 	c #8C3000",
"1 	c #791F00",
"2 	c #791D00",
"3 	c #791E00",
"4 	c #A22F00",
"5 	c #852700",
"6 	c #B03100",
"7 	c #9D3200",
"8 	c #561E00",
"9 	c #A13F00",
"0 	c #924100",
"a 	c #552600",
"b 	c #2D1000",
"c 	c #551100",
"d 	c #952800",
"e 	c #631B00",
"f 	c #C63B00",
"g 	c #DB4800",
"h 	c #D94C00",
"i 	c #E15A00",
"j 	c #D44D00",
"k 	c #DE5300",
"l 	c #D65200",
"m 	c #C84900",
"n 	c #D14300",
"o 	c #A22B00",
"p 	c #A73600",
"q 	c #4C1200",
"r 	c #8D2C00",
"s 	c #893100",
"t 	c #301200",
"u 	c #430F00",
"v 	c #360D00",
"w 	c #B33C00",
"x 	c #A33A00",
"y 	c #792E00",
"z 	c #7C3200",
"A 	c #7B3000",
"B 	c #7B3300",
"C 	c #763100",
"D 	c #652500",
"E 	c #582100",
"F 	c #702400",
"G 	c #902600",
"H 	c #3E0900",
"I 	c #C85200",
"J 	c #8E3400",
"K 	c #551B00",
"L 	c #AE3D00",
"M 	c #4C1B00",
"N 	c #822900",
"O 	c #9E3000",
"P 	c #A83300",
"Q 	c #A72F00",
"R 	c #B03900",
"S 	c #AD3800",
"T 	c #BC4300",
"U 	c #B84100",
"V 	c #481E00",
"W 	c #3E1400",
"X 	c #8F2600",
"Y 	c #310900",
"Z 	c #862F00",
"` 	c #6D2800",
" .	c #712200",
"..	c #822700",
"+.	c #330E00",
"@.	c #340E00",
"#.	c #300C00",
"$.	c #802800",
"%.	c #983900",
"&.	c #491C00",
"*.	c #AD3A00",
"=.	c #651C00",
"-.	c #341000",
";.	c #8E3A00",
">.	c #5F2800",
",.	c #792300",
"'.	c #651D00",
").	c #7E2700",
"!.	c #A73400",
"~.	c #4B1900",
"{.	c #A85500",
"].	c #190500",
"^.	c #A13D00",
"/.	c #5D2700",
"(.	c #631800",
"_.	c #841D00",
":.	c #B33800",
"<.	c #4F1500",
"[.	c #933900",
"}.	c #AD5800",
"|.	c #241000",
"1.	c #B45300",
"2.	c #642F00",
"3.	c #802500",
"4.	c #6E1E00",
"5.	c #C44200",
"6.	c #6E2700",
"7.	c #792900",
"8.	c #B04300",
"9.	c #2E1300",
"0.	c #AC5300",
"a.	c #662E00",
"b.	c #7E2300",
"c.	c #702200",
"d.	c #CC5600",
"e.	c #873500",
"f.	c #742B00",
"g.	c #B24900",
"h.	c #3A1600",
"i.	c #A64400",
"j.	c #6F2900",
"k.	c #843100",
"l.	c #973B00",
"m.	c #D37600",
"n.	c #8E3D00",
"o.	c #651E00",
"p.	c #BF4500",
"q.	c #4A1700",
"r.	c #822200",
"s.	c #781F00",
"t.	c #6C2B00",
"u.	c #9B3B00",
"v.	c #713100",
"w.	c #CA5900",
"x.	c #AA5F00",
"y.	c #692E00",
"z.	c #5B1F00",
"A.	c #8D2800",
"B.	c #5E2000",
"C.	c #853000",
"D.	c #AC4B00",
"E.	c #C15300",
"F.	c #A94200",
"G.	c #723A00",
"H.	c #A53E00",
"I.	c #341500",
"J.	c #963700",
"K.	c #9C3D00",
"L.	c #622400",
"M.	c #AB4C00",
"N.	c #C16900",
"O.	c #CD4C00",
"P.	c #D25A00",
"Q.	c #973900",
"R.	c #B94C00",
"S.	c #501E00",
"T.	c #6F3300",
"U.	c #B54900",
"V.	c #983800",
"W.	c #A54100",
"X.	c #B93E00",
"Y.	c #B63A00",
"Z.	c #B33500",
"`.	c #B32F00",
" +	c #AD2F00",
".+	c #8D3400",
"++	c #733400",
"@+	c #9A4A00",
"#+	c #A33D00",
"$+	c #C64C00",
"%+	c #D55300",
"&+	c #CA4300",
"*+	c #BA3A00",
"=+	c #A63000",
"-+	c #8A2C00",
";+	c #A33500",
">+	c #7B2600",
",+	c #B03E00",
"'+	c #5D2800",
")+	c #623000",
"!+	c #7B3600",
"~+	c #843300",
"{+	c #923900",
"]+	c #862E00",
"^+	c #802A00",
"/+	c #7E2500",
"(+	c #902900",
"_+	c #9F2A00",
":+	c #531E00",
"<+	c #822F00",
"[+	c #AB4F00",
"}+	c #9F4600",
"|+	c #7F3000",
"1+	c #873400",
"2+	c #7C2900",
"3+	c #762400",
"4+	c #792200",
"5+	c #922600",
"6+	c #511600",
"7+	c #8B3100",
"8+	c #A24500",
"9+	c #AB4D00",
"0+	c #A54A00",
"a+	c #9D3F00",
"b+	c #B14B00",
"c+	c #9E3A00",
"d+	c #8A2600",
"e+	c #841B00",
"f+	c #821E00",
"g+	c #681B00",
"h+	c #602B00",
"i+	c #823700",
"j+	c #974200",
"k+	c #AB4300",
"l+	c #C75600",
"m+	c #A83900",
"n+	c #8F2300",
"o+	c #7A1A00",
"p+	c #5F1600",
"q+	c #451300",
"r+	c #431B00",
"s+	c #492000",
"t+	c #482100",
"u+	c #451C00",
"v+	c #4C2100",
"w+	c #441900",
"x+	c #3D1200",
"y+	c #3E1000",
"z+	c #380E00",
"A+	c #452000",
"B+	c #461A00",
"C+	c #542500",
"D+	c #471800",
"E+	c #3B1000",
"                                                                ",
"                                                                ",
"                                                                ",
"                                        . + @ # $ % & *         ",
"                                    = - ; > , ' ) ! ~ { ] ^     ",
"                                  / ( _ : < [ } | 1 2 3 4 5     ",
"                                6 7 8 9 0 a b       c 2 d e     ",
"      f g h i j k l m l n o     p q r s t               u v     ",
"      w x y z A B C D E F G H I J K L M                         ",
"      N O P Q R S T U V W X Y Z `  ...                          ",
"        +.@.@.+.#.$.%.&.*.=.-.;.>.,.'.                          ",
"                ).!.~.{.[ ].  ^./.2 (.                          ",
"              _.:.<.[.}.|.    1.2.3.4.                          ",
"              5.6.7.8.9.      0.a.b.c.                          ",
"            d.e.f.g.h.        i.j.k.l.                          ",
"          m.n.o.p.q.          r.s.t.u.v.                        ",
"        w.x.y.p z.              A.B.C.D.                        ",
"      E.F.G.H.7.I.              J.K.L.M.N.            O.P.Q.    ",
"      R.S.T.U.V.W.X.Y.Z.`. +      u..+++@+#+$+%+&+*+=+-+;+>+    ",
"      ,+'+)+!+~+{+]+^+/+(+_+      :+<+[+}+B |+1+2+3+4+^ 5+6+    ",
"      7+8+9+0+a+b+c+d+e+f+g+          h+i+j+k+l+m+n+o+p+q+      ",
"        r+s+t+u+v+w+x+y+z+                A+B+C+D+E+#.          ",
"                                                                ",
"                                                                "};
