/* XPM */
static char * zuluMount_xpm[] = {
"32 28 185 2",
"  	c None",
". 	c #B44A00",
"+ 	c #AB4A00",
"@ 	c #A14900",
"# 	c #C44300",
"$ 	c #BE3F00",
"% 	c #AF3100",
"& 	c #C23700",
"* 	c #561B00",
"= 	c #401800",
"- 	c #9D3D00",
"; 	c #A22700",
"> 	c #5F1600",
", 	c #401100",
"' 	c #922C00",
") 	c #4A1F00",
"! 	c #A42F00",
"~ 	c #340E00",
"{ 	c #712C00",
"] 	c #5F2600",
"^ 	c #6F3500",
"/ 	c #8A2300",
"( 	c #4F1400",
"_ 	c #4D1500",
": 	c #8B2800",
"< 	c #361200",
"[ 	c #983C00",
"} 	c #883A00",
"| 	c #853800",
"1 	c #863E00",
"2 	c #732E00",
"3 	c #7F2C00",
"4 	c #802000",
"5 	c #972E00",
"6 	c #401300",
"7 	c #B84000",
"8 	c #753000",
"9 	c #A95000",
"0 	c #8E3000",
"a 	c #5B1B00",
"b 	c #881C00",
"c 	c #662000",
"d 	c #7E2300",
"e 	c #381300",
"f 	c #9A3100",
"g 	c #8D2D00",
"h 	c #8C2D00",
"i 	c #903200",
"j 	c #893100",
"k 	c #752A00",
"l 	c #541D00",
"m 	c #651900",
"n 	c #953000",
"o 	c #A13600",
"p 	c #922F00",
"q 	c #752800",
"r 	c #AA4600",
"s 	c #6D2100",
"t 	c #721800",
"u 	c #5C1D00",
"v 	c #7C2500",
"w 	c #371100",
"x 	c #260A00",
"y 	c #220700",
"z 	c #220900",
"A 	c #461300",
"B 	c #722900",
"C 	c #5E2100",
"D 	c #571800",
"E 	c #A54300",
"F 	c #411200",
"G 	c #882400",
"H 	c #681C00",
"I 	c #551600",
"J 	c #882800",
"K 	c #723000",
"L 	c #902C00",
"M 	c #6B1C00",
"N 	c #5D2200",
"O 	c #852B00",
"P 	c #2F0B00",
"Q 	c #8F2B00",
"R 	c #4D2300",
"S 	c #6F3C00",
"T 	c #B05400",
"U 	c #401200",
"V 	c #8F2800",
"W 	c #391200",
"X 	c #551700",
"Y 	c #7A2C00",
"Z 	c #5E2B00",
"` 	c #672100",
" .	c #612800",
"..	c #8B3600",
"+.	c #2C0900",
"@.	c #9E3500",
"#.	c #541F00",
"$.	c #812F00",
"%.	c #260F00",
"&.	c #B14A00",
"*.	c #431300",
"=.	c #902F00",
"-.	c #1F0700",
";.	c #8D2E00",
">.	c #6C2400",
",.	c #7C2B00",
"'.	c #8E3D00",
").	c #361100",
"!.	c #5C1900",
"~.	c #613100",
"{.	c #903000",
"].	c #310A00",
"^.	c #9A3F00",
"/.	c #591E00",
"(.	c #802F00",
"_.	c #2D1000",
":.	c #9D3100",
"<.	c #451700",
"[.	c #953900",
"}.	c #632200",
"|.	c #5F1F00",
"1.	c #4E1A00",
"2.	c #7A2900",
"3.	c #8B2700",
"4.	c #612000",
"5.	c #852500",
"6.	c #421C00",
"7.	c #975100",
"8.	c #612F00",
"9.	c #6F2100",
"0.	c #381200",
"a.	c #9D2D00",
"b.	c #471B00",
"c.	c #8D3300",
"d.	c #702700",
"e.	c #572000",
"f.	c #4A1600",
"g.	c #812400",
"h.	c #5A1700",
"i.	c #8B2C00",
"j.	c #3C1900",
"k.	c #A14500",
"l.	c #5B2200",
"m.	c #883800",
"n.	c #742700",
"o.	c #552200",
"p.	c #B73600",
"q.	c #B13C00",
"r.	c #461C00",
"s.	c #8E3500",
"t.	c #682600",
"u.	c #742E00",
"v.	c #3C1800",
"w.	c #922E00",
"x.	c #621F00",
"y.	c #953400",
"z.	c #401C00",
"A.	c #A53D00",
"B.	c #3E1900",
"C.	c #682C00",
"D.	c #5D2300",
"E.	c #6F2A00",
"F.	c #6A2200",
"G.	c #7A2300",
"H.	c #842300",
"I.	c #B33600",
"J.	c #5E1D00",
"K.	c #9E3E00",
"L.	c #892300",
"M.	c #822A00",
"N.	c #9D2E00",
"O.	c #381600",
"P.	c #602200",
"Q.	c #602500",
"R.	c #612C00",
"S.	c #652700",
"T.	c #672A00",
"U.	c #5A1800",
"V.	c #5C1400",
"W.	c #481200",
"X.	c #631B00",
"Y.	c #642100",
"Z.	c #4B1D00",
"`.	c #601B00",
" +	c #5A1A00",
"                                                                ",
"                                                                ",
"                                                                ",
"                                                                ",
"                                                                ",
"                                                                ",
"                                                                ",
"                              . + @           # $ %             ",
"                            & * = -         ; > , ' )           ",
"                            ! ~ { ] ^       / ( _ : <           ",
"            [ } | 1 2 3 4   5 6 7 8 9     0 a b c d e           ",
"          f g h i j k l m   n 6 o p q     r s t u v w           ",
"            x y z A B C D   E F G H I J   K L M N O P           ",
"                  Q R S     T U V W J X Y Z ` X  ...+.          ",
"                @.#.$.%.    &.*.=.-.;.>.,.'.).!.~.{.].          ",
"              ^./.(._.      :.<.[.  }.|.1.2.  3.4.5.6.          ",
"            7.8.9.0.        a.b.c.    d.e.f.  g.h.i.j.          ",
"          k.l.m.n.o.  p.    q.r.s.    t.u.v.  w.x.y.z.          ",
"          A.B.C.D.E.F.G.H.  I.J.K.            L.M.N.O.          ",
"          P.Q.R.S.T.U.V.W.  X.Y.Z.              `. +            ",
"                                                                ",
"                                                                ",
"                                                                ",
"                                                                ",
"                                                                ",
"                                                                ",
"                                                                ",
"                                                                "};
